<svg xmlns="http://www.w3.org/2000/svg" width="485.213" height="485.212">
    <path d="M151.628 242.606h181.958c16.76 0 30.322-13.579 30.322-30.324v-90.978C363.908 54.315 309.598 0 242.606 0c-66.989 0-121.302 54.315-121.302 121.304v90.978c0 16.745 13.563 30.324 30.324 30.324zm90.978-212.279s0 91.925 90.979 90.978c0 50.241-40.748 90.978-90.979 90.978-50.228 0-90.978-40.736-90.978-90.978 0-.001 90.978.946 90.978-90.978zM363.908 272.93h-75.812l30.326 30.327-75.816 90.979-75.812-90.979 30.322-30.327h-75.812c-33.498 0-60.653 27.163-60.653 60.654v121.302c0 16.764 13.565 30.326 30.327 30.326h303.258c16.759 0 30.326-13.562 30.326-30.326V333.584c0-33.491-27.163-60.654-60.654-60.654z"/>
</svg>
