<svg xmlns="http://www.w3.org/2000/svg" viewBox="0 0 434 434">
    <path d="M305.505 283h-177.01V148c0-48.12 38.4-87.26 86.22-88.47.76-.02 1.52-.03 2.28-.03h.01c48.87 0 88.5 39.62 88.5 88.5v135z" fill="#cca971"/>
    <path d="M305.505 289h-177.01a6 6 0 0 1-6-6V148c0-24.82 9.548-48.266 26.885-66.018 17.305-17.72 40.455-27.824 65.184-28.45a93.5 93.5 0 0 1 2.432-.032c52.118 0 94.51 42.393 94.51 94.5v135a6.002 6.002 0 0 1-6.001 6zm-171.01-12h165.01V148c0-45.491-37.009-82.5-82.5-82.5-.717 0-1.425.01-2.132.028-21.592.546-41.8 9.367-56.908 24.837-15.135 15.498-23.47 35.966-23.47 57.634V277z" fill="#333"/>
    <path d="M266.355 256.97c.19.05.39.09.58.14a88.003 88.003 0 0 1 28.83 12.81c23.39 15.92 38.75 42.77 38.75 73.19V428H99.485v-84.89c0-30.42 15.35-57.27 38.74-73.19a88.003 88.003 0 0 1 28.83-12.81c.19-.05.39-.09.58-.14" fill="#9ad14b"/>
    <path d="M146.515 304v124h-47.03v-84.89c0-30.42 15.35-57.27 38.74-73.19 5.3 10.2 8.29 21.79 8.29 34.08zm188 39.11V428h-47.04V304c0-12.29 2.99-23.88 8.29-34.08 23.39 15.92 38.75 42.77 38.75 73.19z" fill="#ffd3ae"/>
    <path d="M342.5 428h-12v-78.69c0-25.831-11.669-50.163-32.858-68.514C276.212 262.226 247.663 252 217.25 252 154.804 252 104 295.653 104 349.31V428H92v-78.69C92 289.036 148.187 240 217.25 240c33.299 0 64.64 11.267 88.249 31.726 23.86 20.664 37.001 48.218 37.001 77.584V428z" fill="#333"/>
    <path d="M293.475 428h-12V304c0-12.816 3.1-25.558 8.966-36.846l10.648 5.533c-5.052 9.724-7.614 20.259-7.614 31.313v124z" fill="#333"/>
    <path d="M314.515 414a6 6 0 0 1-6-6v-73a6 6 0 0 1 12 0v73a6 6 0 0 1-6 6z" fill="#fff"/>
    <path d="M143.165 281.92c-15.21 15.89-24.56 37.45-24.56 61.19V426h-19.12v-82.89c0-30.42 15.35-57.27 38.74-73.19 1.98 3.82 3.64 7.83 4.94 12z" opacity=".44" fill="#333"/>
    <path d="M152.515 428h-12V304c0-11.055-2.562-21.59-7.614-31.313l10.648-5.533c5.865 11.288 8.966 24.029 8.966 36.847V428z" fill="#333"/>
    <path d="M251.48 404h-68.96c-23.159 0-42-18.841-42-42h12c0 16.542 13.458 30 30 30h68.96c16.542 0 30-13.458 30-30h12c0 23.159-18.841 42-42 42z" fill="#333"/>
    <path d="M251.48 386a6 6 0 0 1 0-12c6.617 0 12-5.383 12-12a6 6 0 0 1 12 0c0 13.234-10.766 24-24 24z" fill="#fff"/>
    <path d="M348.5 434H85.73a6 6 0 0 1 0-12H348.5a6 6 0 0 1 0 12zm32 0h-11a6 6 0 0 1 0-12h11a6 6 0 0 1 0 12zm-316 0h-11a6 6 0 0 1 0-12h11a6 6 0 0 1 0 12z" fill="#333"/>
    <path d="M258.885 248.5v65.36c0 14.71-11.93 26.64-26.64 26.64h-30.72c-14.71 0-26.64-11.93-26.64-26.64V248.5c12.5 6.75 26.8 10.58 41.99 10.58 15.21 0 29.51-3.83 42.01-10.58z" fill="#ffd3ae"/>
    <path d="M232.245 346.5h-30.72c-17.998 0-32.64-14.642-32.64-32.64V248.5h12v65.36c0 11.381 9.259 20.64 20.64 20.64h30.72c11.381 0 20.64-9.259 20.64-20.64V248.5h12v65.36c0 17.998-14.642 32.64-32.64 32.64z" fill="#333"/>
    <path d="M216.885 346.5a6 6 0 0 1-6-6v-15a6 6 0 0 1 12 0v15a6 6 0 0 1-6 6z" fill="#333"/>
    <path d="M258.3 245.5c-3.405 8.5 1.955 17.06.585 19.18a88.887 88.887 0 0 1-24.62 25.39c-.19.14-.39.27-.58.4-14.1 9.49-31.08 15.03-49.36 15.03-5.24 0-6.11-4.72-9.44-7.26V248.5c11.87 5.92 29.24 12 43.41 12 17.86 0 26.105-5.91 40.005-15z" opacity=".44" fill="#333"/>
    <g fill="#ffd3ae">
        <circle cx="136.432" cy="146" r="27.89"/>
        <circle cx="297.567" cy="146" r="27.89"/>
    </g>
    <path d="M136.432 179.89c-18.687 0-33.89-15.203-33.89-33.89s15.203-33.89 33.89-33.89 33.89 15.203 33.89 33.89-15.203 33.89-33.89 33.89zm0-55.78c-12.07 0-21.89 9.82-21.89 21.89s9.82 21.89 21.89 21.89 21.89-9.82 21.89-21.89-9.82-21.89-21.89-21.89zm161.135 55.78c-18.687 0-33.89-15.203-33.89-33.89s15.203-33.89 33.89-33.89 33.89 15.203 33.89 33.89-15.203 33.89-33.89 33.89zm0-55.78c-12.07 0-21.89 9.82-21.89 21.89s9.82 21.89 21.89 21.89 21.89-9.82 21.89-21.89-9.819-21.89-21.89-21.89z" fill="#333"/>
    <path d="M266.36 241.97C252.26 251.46 235.28 257 217 257s-35.26-5.54-49.36-15.03c-.19-.13-.39-.26-.58-.4-23.28-15.94-38.56-42.72-38.56-73.07v-74C128.5 45.623 168.123 6 217 6s88.5 39.623 88.5 88.5v74c0 30.35-15.28 57.13-38.56 73.07-.19.14-.39.27-.58.4z" fill="#ffd3ae"/>
    <path d="M217 216.01c-4.869 0-9.738-.513-14.573-1.538a6 6 0 0 1 2.489-11.739 57.88 57.88 0 0 0 24.167 0 5.998 5.998 0 0 1 7.114 4.625 6 6 0 0 1-4.625 7.114A70.15 70.15 0 0 1 217 216.01z" fill="#f7774b"/>
    <path d="M217.505 229h-1.01a4 4 0 0 1 0-8h1.01a4 4 0 0 1 0 8z" fill="#333" opacity=".44"/>
    <path d="M272.473 140.414c-.453 0-.912-.052-1.372-.159a53.397 53.397 0 0 0-24.203 0 6 6 0 1 1-2.733-11.685 65.452 65.452 0 0 1 29.669 0 6 6 0 0 1-1.361 11.844z" fill="#333"/>
    <path d="M198.64 241.97a88.195 88.195 0 0 0 33.86 13.68c-5.03.89-10.21 1.35-15.5 1.35-18.28 0-35.26-5.54-49.36-15.03-.19-.13-.39-.26-.58-.4-23.28-15.94-38.56-42.72-38.56-73.07V146c0-139 54.89-137.301 54.89-134.411l-10.384 15.807c-15.364 23.387-15.305 53.174-.958 76.231 2.423 3.895 10.151 17.294 10.019 20.366-.483 11.29-9.201 21.36-21.338 21.975-.407.021-.817.031-1.229.031v22.5c0 30.35 15.28 57.13 38.56 73.07.19.141.39.271.58.401z" opacity=".44" fill="#333"/>
    <g fill="#333">
        <circle cx="182.66" cy="157.116" r="8.009"/>
        <path d="M167.33 164.208a6 6 0 0 1-4.249-10.236 20.373 20.373 0 0 1 23.375-3.919 6 6 0 0 1-5.269 10.781 8.375 8.375 0 0 0-9.609 1.611 5.98 5.98 0 0 1-4.248 1.763z"/>
        <circle cx="251.34" cy="157.116" r="8.009"/>
        <path d="M266.669 164.208a5.984 5.984 0 0 1-4.249-1.763 8.375 8.375 0 0 0-9.609-1.611 6 6 0 1 1-5.269-10.781 20.374 20.374 0 0 1 23.375 3.919 6 6 0 0 1-4.248 10.236z"/>
    </g>
    <path d="M210.057 189a6 6 0 0 1-6-6v-32.927c0-2.692-1.515-5.195-3.859-6.375-7.192-3.621-19.524-7.153-37.439-3.412a6 6 0 0 1-2.453-11.747c21.305-4.447 36.388-.041 45.289 4.441 6.454 3.249 10.462 9.799 10.462 17.093V183a6 6 0 0 1-6 6z" fill="#333"/>
    <path d="M130.795 140.7l-.8.3h-1.5V94.5c0-48.12 38.4-87.26 86.22-88.47l2.28.97v71.56a199.697 199.697 0 0 1-86.2 62.14z" fill="#cca971"/>
    <path d="M216.995 7v9.32c-27.96 14.87-46.99 44.3-46.99 78.18v26.51a199.31 199.31 0 0 1-39.21 19.69l-.8.3h-1.5V94.5c0-48.12 38.4-87.26 86.22-88.47l2.28.97z" opacity=".44" fill="#333"/>
    <path d="M303.205 140.7a199.668 199.668 0 0 1-86.21-62.14V7l-2.28-.97c.76-.02 1.52-.03 2.28-.03h.01c48.87 0 88.5 39.62 88.5 88.5V141h-1.51l-.79-.3z" fill="#cca971"/>
    <path d="M216.995 263c-18.874 0-37.097-5.551-52.7-16.052-.227-.147-.484-.32-.731-.503-25.718-17.664-41.068-46.792-41.068-77.944v-74c0-24.82 9.548-48.266 26.885-66.018C166.686 10.763 189.836.659 214.565.033a89.002 89.002 0 0 1 2.43-.033c52.118 0 94.51 42.393 94.51 94.5v74c0 31.175-15.366 60.32-41.106 77.977-.14.1-.283.197-.425.293l-.106.071c-.055.04-.097.068-.153.106C254.112 257.449 235.881 263 216.995 263zm.01-251c-.717 0-1.425.01-2.132.028-21.592.546-41.8 9.367-56.908 24.837-15.135 15.498-23.47 35.966-23.47 57.634v74c0 27.236 13.443 52.702 35.96 68.12.1.068.197.139.292.213l.157.1.091.06c13.616 9.164 29.522 14.007 46 14.007 16.466 0 32.355-4.829 45.958-13.965.109-.077.224-.155.339-.232l.116-.079c.054-.04.092-.066.147-.104 22.511-15.414 35.95-40.879 35.95-68.12v-74c0-45.49-37.009-82.499-82.5-82.499z" fill="#333"/>
    <path d="M132.1 146.619l-4.21-11.237.8-.3a193.84 193.84 0 0 0 83.627-60.28 6.001 6.001 0 0 1 9.354 0 193.796 193.796 0 0 0 83.621 60.273l.831.315-4.258 11.22-.79-.3a205.783 205.783 0 0 1-84.081-58.378 205.861 205.861 0 0 1-84.111 58.394l-.783.293z" fill="#333"/>
    <path fill="#333" d="M210.995 7h12v71.56h-12z"/>
    <path d="M287.505 192a6 6 0 0 1-6-6v-29a6 6 0 0 1 12 0v29a6 6 0 0 1-6 6z" fill="#fff"/>
    <path d="M127.505 59.975c49.639-47.966 128.361-47.966 178 0V110c-49.639-47.966-128.361-47.966-178 0V59.975z" fill="#9ad14b"/>
    <path d="M164.501 37.975a129.045 129.045 0 0 1 6.031-5.46c-15.604 5.991-30.276 15.139-43.028 27.46V110c11.095-10.721 23.645-19.039 36.997-24.967V37.975z" fill="#333" opacity=".44"/>
    <path d="M305.506 116a6.003 6.003 0 0 1-4.171-1.685l-6.051-5.847c-21.251-20.535-49.229-31.844-78.78-31.844s-57.529 11.309-78.78 31.844l-6.051 5.847A6.001 6.001 0 0 1 121.504 110V65.496c0-5.127 2.114-10.11 5.801-13.673 24.062-23.25 55.739-36.055 89.199-36.055 33.459 0 65.137 12.805 89.198 36.055a19.112 19.112 0 0 1 5.802 13.673V110a5.998 5.998 0 0 1-5.998 6zm-89.001-51.375c30.804 0 60.061 11.111 83 31.406V65.496c0-1.891-.78-3.729-2.14-5.044-21.812-21.077-50.529-32.684-80.86-32.684-30.332 0-59.048 11.607-80.86 32.685a7.049 7.049 0 0 0-2.14 5.043V96.03c22.939-20.295 52.196-31.405 83-31.405z" fill="#333"/>
    <path d="M288.505 82a6 6 0 0 1-6-6V65a6 6 0 0 1 12 0v11a6 6 0 0 1-6 6z" fill="#fff"/>
</svg>
