<svg xmlns="http://www.w3.org/2000/svg" viewBox="0 0 439 439"><path fill="#f7774b" d="M140.01 233h159v68h-159z"/><path opacity=".44" fill="#333" d="M140.01 233h159v68h-159z"/><path d="M268.86 261.97c.19.05.39.09.58.14a88.003 88.003 0 0 1 28.83 12.81c23.39 15.92 38.75 42.77 38.75 73.19V433H101.99v-84.89c0-30.42 15.35-57.27 38.74-73.19a88.003 88.003 0 0 1 28.83-12.81c.19-.05.39-.09.58-.14" fill="#a5cdef"/><path d="M269.44 260.38v1.97c0 27.58-22.35 49.94-49.93 49.94-27.59 0-49.94-22.36-49.94-49.94v-1.78c4.53-1.83 9.21-3.41 14.03-4.73 10.98 4.88 23.12 7.59 35.91 7.59 12.85 0 25.07-2.74 36.09-7.68 4.75 1.29 9.37 2.84 13.84 4.63z" fill="#e8b691"/><path d="M267.885 249.05a88.868 88.868 0 0 1-28.44 31.95c-.19.14-.39.27-.58.4-14.1 9.49-31.08 15.03-49.36 15.03-6.5 0-6.267-7.273-12.367-8.613-.66-3.23-7.573-7.467-7.573-10.887v-28.39c.19-.05.39-.09.58-.14 14.1 9.49 31.08 15.03 49.36 15.03 17.86 0 34.48-5.29 48.38-14.38z" opacity=".44" fill="#333"/><path d="M253.985 397h-68.96c-23.159 0-42-18.841-42-42h12c0 16.542 13.458 30 30 30h68.96c16.542 0 30-13.458 30-30h12c0 23.159-18.841 42-42 42z" fill="#333"/><path d="M253.985 379a6 6 0 0 1 0-12c6.617 0 12-5.383 12-12a6 6 0 0 1 12 0c0 13.234-10.766 24-24 24z" fill="#fff"/><path d="M268.865 246.97c-14.1 9.49-31.08 15.03-49.36 15.03s-35.26-5.54-49.36-15.03c-.19-.13-.39-.26-.58-.4-23.28-15.94-38.56-42.72-38.56-73.07v-74c0-48.877 39.623-88.5 88.5-88.5s88.5 39.623 88.5 88.5v74c0 30.35-15.28 57.13-38.56 73.07-.19.14-.39.27-.58.4z" fill="#ffd3ae"/><path d="M219.505 268c-18.88 0-37.107-5.551-52.71-16.052l-.182-.123c-.168-.114-.339-.23-.506-.351-25.74-17.656-41.102-46.798-41.102-77.974v-74c0-52.107 42.393-94.5 94.5-94.5s94.5 42.393 94.5 94.5v74c0 31.174-15.365 60.317-41.102 77.974-.167.12-.337.236-.506.35l-.137.093-.045.031C256.612 262.449 238.385 268 219.505 268zm0-251c-45.491 0-82.5 37.009-82.5 82.5v74c0 27.241 13.439 52.706 35.95 68.12.056.038.11.077.165.117.068.05.139.096.208.143l.212.145c13.57 9.133 29.48 13.977 45.965 13.977s32.394-4.844 46.01-14.007l.376-.256c.054-.04.109-.079.165-.117 22.51-15.414 35.95-40.879 35.95-68.12v-74C302.005 54.009 264.996 17 219.505 17z" fill="#333"/><path d="M219.504 221.01c-4.869 0-9.738-.513-14.573-1.538a6 6 0 0 1 2.489-11.739 57.897 57.897 0 0 0 24.167 0 5.999 5.999 0 0 1 7.114 4.625 6 6 0 0 1-4.625 7.114 70.136 70.136 0 0 1-14.572 1.538z" fill="#f7774b"/><path d="M220.01 234H219a4 4 0 0 1 0-8h1.01a4 4 0 0 1 0 8z" fill="#333" opacity=".44"/><path d="M248.031 145.414a6 6 0 0 1-1.361-11.844 65.452 65.452 0 0 1 29.669 0 6 6 0 0 1-2.733 11.685 53.411 53.411 0 0 0-24.203 0 6.041 6.041 0 0 1-1.372.159z" fill="#333"/><path d="M201.145 246.97a88.195 88.195 0 0 0 33.86 13.68c-5.03.89-10.21 1.35-15.5 1.35-18.28 0-35.26-5.54-49.36-15.03-.19-.13-.39-.26-.58-.4-23.28-15.94-38.56-42.72-38.56-73.07V151c0-139 54.89-137.301 54.89-134.411l-10.384 15.807c-15.364 23.387-15.305 53.174-.958 76.231 2.423 3.895 10.151 17.294 10.019 20.366-.483 11.29-9.201 21.36-21.338 21.975-.407.021-.817.031-1.229.031v22.5c0 30.35 15.28 57.13 38.56 73.07.19.141.39.271.58.401z" opacity=".44" fill="#333"/><circle cx="185.165" cy="162.116" r="8.009" fill="#333"/><path d="M169.835 169.208a6 6 0 0 1-4.249-10.236 20.371 20.371 0 0 1 23.375-3.919 6 6 0 0 1-5.269 10.781 8.376 8.376 0 0 0-9.608 1.611 5.982 5.982 0 0 1-4.249 1.763z" fill="#333"/><circle cx="253.845" cy="162.116" r="8.009" fill="#333"/><path d="M269.174 169.208a5.984 5.984 0 0 1-4.249-1.763 8.377 8.377 0 0 0-9.609-1.611 6 6 0 0 1-5.269-10.781 20.376 20.376 0 0 1 23.375 3.919 6 6 0 0 1-4.248 10.236zM212.562 194a6 6 0 0 1-6-6v-32.927c0-2.692-1.515-5.195-3.858-6.375-7.192-3.621-19.525-7.154-37.44-3.412a6 6 0 0 1-2.453-11.747c21.306-4.449 36.389-.041 45.29 4.441 6.453 3.25 10.462 9.799 10.462 17.093V188a6.002 6.002 0 0 1-6.001 6z" fill="#333"/><path d="M339 414.43V433h-49.02v-78l41.29-37.34c4.99 11.39 7.73 23.74 7.73 36.65v60.12zM149.02 368v65H100.5v-78.69c0-12.79 2.68-25.04 7.58-36.34l40.94 37.02V368z" fill="#ffd3ae"/><path d="M149.021 360.998a5.967 5.967 0 0 1-4.066-1.593l-40.9-36.984a6 6 0 0 1 8.049-8.901l40.94 37.02.113.105a6.004 6.004 0 0 1-4.136 10.353zm140.961.002a6 6 0 0 1-4.026-10.451l41.29-37.34a6 6 0 0 1 8.049 8.901l-41.29 37.34a5.982 5.982 0 0 1-4.023 1.55z" fill="#333"/><path d="M283.01 211a6 6 0 0 1-6-6v-29a6 6 0 0 1 12 0v29a6 6 0 0 1-6 6z" fill="#fff"/><path d="M219.51 318.29c-30.845 0-55.94-25.095-55.94-55.94v-1.78h12v1.78c0 24.229 19.711 43.94 43.94 43.94 24.223 0 43.93-19.711 43.93-43.94v-1.97h12v1.97c0 30.845-25.09 55.94-55.93 55.94z" fill="#333"/><path d="M316.527 103.017l5.588 101.644A87.418 87.418 0 0 1 297.891 270V128l-.01-.004a216.916 216.916 0 0 0-156.763.004v142a87.418 87.418 0 0 1-24.224-65.339l5.588-101.644C122.483 49.433 165.926 6 219.499 6h.011c53.573 0 97.017 43.433 97.017 97.017z" fill="#f7774b"/><path d="M170.292 103.017c0-45.335 31.099-83.4 73.118-94.046A97.158 97.158 0 0 0 219.51 6h-.011c-53.573 0-97.017 43.433-97.017 97.017l-5.588 101.645a87.422 87.422 0 0 0 24.224 65.339V128a216.97 216.97 0 0 1 28.131-8.75l1.043-16.233z" fill="#333" opacity=".44"/><path d="M297.89 276a6 6 0 0 1-5.999-6V132.152c-46.838-17.122-97.933-17.123-144.772 0V270a5.998 5.998 0 0 1-10.328 4.155c-17.868-18.613-27.304-44.063-25.887-69.824l5.579-101.482C116.573 46.122 162.751 0 219.5 0c56.759 0 102.937 46.122 103.027 102.85l5.579 101.482c1.417 25.762-8.019 51.211-25.887 69.824A6.001 6.001 0 0 1 297.89 276zM219.51 12c-50.198 0-91.028 40.83-91.028 91.017 0 .11-.003.22-.009.33l-5.588 101.645c-.924 16.8 3.449 33.45 12.233 47.563V128.001a6.001 6.001 0 0 1 3.832-5.595c51.939-20.129 109.147-20.132 161.088-.007a6.013 6.013 0 0 1 3.853 5.602v124.554c8.784-14.113 13.157-30.763 12.233-47.564l-5.589-101.644a6.058 6.058 0 0 1-.009-.33C310.527 52.83 269.697 12 219.51 12z" fill="#333"/><path d="M296.449 91.001a6 6 0 0 1-5.836-4.634c-5.041-21.532-20.051-40.028-40.153-49.477a6 6 0 1 1 5.104-10.86c23.393 10.996 40.863 32.529 46.732 57.602a6 6 0 0 1-5.847 7.369zm-60.433-59.265c-.415 0-.835-.043-1.257-.133a72.637 72.637 0 0 0-7.389-1.182 6 6 0 0 1 1.281-11.931c2.88.31 5.777.773 8.61 1.377a6 6 0 0 1-1.245 11.869z" fill="#fff"/><path d="M297.881 133.997a6 6 0 0 1-6-6V109a6 6 0 0 1 12 0v18.997a6 6 0 0 1-6 6zm-20.871-7.228a6 6 0 0 1-6-6v-18.996a6 6 0 0 1 12 0v18.996a6 6 0 0 1-6 6zm-96-5a6 6 0 0 1-6-6V96.772a6 6 0 0 1 12 0v18.997a6 6 0 0 1-6 6zm18-2a6 6 0 0 1-6-6V94.772a6 6 0 0 1 12 0v18.997a6 6 0 0 1-6 6zm-57.891 14.228a6 6 0 0 1-6-6V109a6 6 0 0 1 12 0v18.997a6 6 0 0 1-6 6zM345 433h-12v-78.69c0-11.777-2.431-23.298-7.226-34.242-5.658-12.917-14.281-24.448-25.631-34.271a101.294 101.294 0 0 0-6.049-4.869c-8.116-6.082-17.148-11.113-26.868-14.971a120.942 120.942 0 0 0-13.2-4.417 63.262 63.262 0 0 0-1.912-.504l2.87-11.651c.75.185 1.49.38 2.229.587a132.596 132.596 0 0 1 14.456 4.839c10.69 4.243 20.654 9.796 29.598 16.499 2.25 1.67 4.524 3.5 6.737 5.422 12.702 10.994 22.381 23.957 28.76 38.522 5.464 12.471 8.234 25.612 8.234 39.057V433H345zm-238.5 0h-12v-78.69c0-13.341 2.717-26.371 8.075-38.727 7.352-16.919 19.548-32.131 35.272-43.993 8.917-6.723 18.837-12.303 29.484-16.586a133.615 133.615 0 0 1 14.684-4.951c.659-.184 1.355-.367 2.053-.549l3.108 11.591c-.708.185-1.339.35-1.962.523a121.64 121.64 0 0 0-13.396 4.515c-9.676 3.893-18.672 8.951-26.746 15.038-14.073 10.617-24.962 24.169-31.489 39.19-4.699 10.836-7.083 22.26-7.083 33.949V433z" fill="#333"/><path d="M295.98 433h-12V309c0-12.496 2.791-24.445 8.295-35.517.171-.357.354-.714.535-1.065l.119-.232 10.682 5.468-.131.255c-.132.256-.267.515-.39.775a4.67 4.67 0 0 1-.049.101c-4.686 9.408-7.061 19.574-7.061 30.215v124zm-140.96 0h-12V309c0-10.539-2.335-20.622-6.941-29.968l-.049-.102a34.069 34.069 0 0 0-.62-1.239l10.643-5.543c.279.536.558 1.083.815 1.629 5.41 10.997 8.153 22.847 8.153 35.222V433h-.001z" fill="#333"/><path d="M351 439H88.23a6 6 0 0 1 0-12H351a6 6 0 0 1 0 12zm32 0h-11a6 6 0 0 1 0-12h11a6 6 0 0 1 0 12zm-316 0H56a6 6 0 0 1 0-12h11a6 6 0 0 1 0 12z" fill="#333"/><path d="M317.02 419a6 6 0 0 1-6-6v-57a6 6 0 0 1 12 0v57a6 6 0 0 1-6 6z" fill="#fff"/><path d="M145.67 286.92c-15.21 15.89-24.56 37.45-24.56 61.19V431h-19.12v-82.89c0-30.42 15.35-57.27 38.74-73.19 1.98 3.82 3.64 7.83 4.94 12z" opacity=".44" fill="#333"/></svg>