<svg xmlns="http://www.w3.org/2000/svg" viewBox="0 0 441.868 441.868"><path d="M237.612 50.661C231.618 25.06 208.656 6 181.229 6c-45.232 0-81.903 36.671-81.903 81.911v173.702c0 22.085-17.909 39.994-39.994 39.994h-11.07l7.683 5.326a85.106 85.106 0 0 0 63.825 13.75l119.842 4.186-2-274.208z" fill="#d3923c"/><path d="M216.392 323.418l-78.27-2.74c-21.65 3.98-53.96 4.63-72.51-7.81-.37-.23-5.64-2.75-6-3l-7-8h12c33 0 53.06-18.164 53.06-40.25V87.908c0-3.144.177-6.246.522-9.297 2.274-20.141 19.502-35.483 39.771-35.562l.327-.001c27.43 0 50.39 19.05 56.38 44.66l1.72 235.71z" opacity=".44" fill="#333"/><path d="M239.613 330.868c-.069 0-.14-.001-.209-.003l-119.203-4.164c-23.449 4.125-48.08-1.266-67.672-14.836l-7.685-5.327a6 6 0 0 1 3.418-10.931h11.071c18.744 0 33.994-15.25 33.994-33.994V87.911C93.326 39.437 132.76 0 181.229 0c29.842 0 55.43 20.27 62.225 49.293.102.434.155.878.158 1.324l2 274.208a6.005 6.005 0 0 1-1.816 4.345 6.005 6.005 0 0 1-4.183 1.698zm-119.842-16.185l.209.003 113.587 3.967-1.949-267.26C225.877 28.166 205.25 12 181.229 12c-41.853 0-75.903 34.054-75.903 75.911v173.702c0 22.598-16.383 41.442-37.895 45.28 15.608 8.216 33.825 11.09 51.254 7.889a6.002 6.002 0 0 1 1.086-.099z" fill="#333"/><path d="M279.462 264.838c.19.05.39.09.58.14a88.003 88.003 0 0 1 28.83 12.81c23.39 15.92 38.75 42.77 38.75 73.19v84.89h-235.03v-84.89c0-30.42 15.35-57.27 38.74-73.19 8.64-5.88 29.22-12.9 29.41-12.95l11.87-7.97" fill="#a5cdef"/><path d="M159.622 311.868v124h-47.03v-84.89c0-30.42 15.35-57.27 38.74-73.19 5.3 10.2 8.29 21.79 8.29 34.08zm188 39.11v84.89h-47.04v-124c0-12.29 2.99-23.88 8.29-34.08 23.39 15.92 38.75 42.77 38.75 73.19z" fill="#a5cdef"/><path d="M355.607 435.868h-12v-78.69c0-25.832-11.669-50.164-32.857-68.515-21.43-18.569-49.979-28.795-80.393-28.795-62.446 0-113.25 43.653-113.25 97.31v78.69h-12v-78.69c0-60.274 56.187-109.31 125.25-109.31 33.299 0 64.64 11.267 88.25 31.725 23.859 20.665 37 48.218 37 77.585v78.69z" fill="#333"/><path d="M306.582 435.868h-12v-124c0-12.816 3.101-25.558 8.966-36.846l10.648 5.533c-5.053 9.724-7.614 20.259-7.614 31.313v124z" fill="#333"/><path d="M327.622 421.868a6 6 0 0 1-6-6v-73a6 6 0 0 1 12 0v73a6 6 0 0 1-6 6z" fill="#fff"/><path d="M156.272 289.788c-15.21 15.89-24.56 37.45-24.56 61.19v82.89h-19.12v-82.89c0-30.42 15.35-57.27 38.74-73.19 1.98 3.82 3.64 7.83 4.94 12z" opacity=".44" fill="#333"/><path d="M165.622 435.868h-12v-124c0-11.054-2.562-21.59-7.614-31.313l10.648-5.533c5.866 11.289 8.966 24.03 8.966 36.846v124z" fill="#333"/><path d="M264.587 411.868h-68.96c-23.159 0-42-18.841-42-42h12c0 16.542 13.458 30 30 30h68.96c16.542 0 30-13.458 30-30h12c0 23.159-18.841 42-42 42z" fill="#333"/><path d="M264.587 393.868a6 6 0 0 1 0-12c6.617 0 12-5.383 12-12a6 6 0 0 1 12 0c0 13.234-10.766 24-24 24z" fill="#fff"/><path d="M361.607 441.868H98.837a6 6 0 0 1 0-12h262.77a6 6 0 0 1 0 12zm32 0h-11a6 6 0 0 1 0-12h11a6 6 0 0 1 0 12zm-316 0h-11a6 6 0 0 1 0-12h11a6 6 0 0 1 0 12z" fill="#333"/><g fill="#ffd3ae"><circle cx="149.54" cy="153.868" r="27.89"/><circle cx="310.675" cy="153.868" r="27.89"/></g><path d="M149.539 187.758c-18.687 0-33.89-15.203-33.89-33.89s15.203-33.89 33.89-33.89 33.89 15.203 33.89 33.89-15.203 33.89-33.89 33.89zm0-55.78c-12.07 0-21.89 9.82-21.89 21.89s9.82 21.89 21.89 21.89 21.89-9.82 21.89-21.89-9.819-21.89-21.89-21.89zm161.136 55.78c-18.688 0-33.891-15.203-33.891-33.89s15.203-33.89 33.891-33.89c18.687 0 33.89 15.203 33.89 33.89s-15.203 33.89-33.89 33.89zm0-55.78c-12.07 0-21.891 9.82-21.891 21.89s9.82 21.89 21.891 21.89 21.89-9.82 21.89-21.89-9.82-21.89-21.89-21.89z" fill="#333"/><path d="M279.467 249.838c-14.1 9.49-31.08 15.03-49.36 15.03s-35.26-5.54-49.36-15.03c-.19-.13-.39-.26-.58-.4-23.28-15.94-38.56-42.72-38.56-73.07v-74c0-48.877 39.623-88.5 88.5-88.5s88.5 39.623 88.5 88.5v74c0 30.35-15.28 57.13-38.56 73.07-.19.14-.39.27-.58.4z" fill="#ffd3ae"/><path d="M230.108 223.878a70.17 70.17 0 0 1-14.574-1.538 6 6 0 1 1 2.49-11.74 57.847 57.847 0 0 0 24.167 0 6 6 0 1 1 2.49 11.74 70.167 70.167 0 0 1-14.573 1.538z" fill="#f7774b"/><path d="M230.613 236.868h-1.011a4 4 0 0 1 0-8h1.011a4 4 0 0 1 0 8z" fill="#333" opacity=".44"/><path d="M211.747 249.838a88.195 88.195 0 0 0 33.86 13.68c-5.03.89-10.21 1.35-15.5 1.35-18.28 0-35.26-5.54-49.36-15.03-.19-.13-.39-.26-.58-.4-23.28-15.94-38.56-42.72-38.56-73.07v-22.5c0-139 54.89-137.301 54.89-134.411l-10.384 15.807c-15.364 23.387-15.305 53.174-.958 76.231 2.423 3.895 10.151 17.294 10.019 20.366-.483 11.29-9.201 21.36-21.338 21.975-.407.021-.817.031-1.229.031v22.5c0 30.35 15.28 57.13 38.56 73.07.19.141.39.271.58.401z" opacity=".44" fill="#333"/><circle cx="195.767" cy="164.984" r="8.009" fill="#333"/><path d="M180.438 172.076a5.999 5.999 0 0 1-4.249-10.236 20.368 20.368 0 0 1 23.375-3.919 6 6 0 0 1-5.269 10.781 8.373 8.373 0 0 0-9.608 1.611 5.988 5.988 0 0 1-4.249 1.763z" fill="#333"/><circle cx="264.447" cy="164.984" r="8.009" fill="#333"/><path d="M279.777 172.076a5.98 5.98 0 0 1-4.249-1.764 8.375 8.375 0 0 0-9.608-1.611 5.998 5.998 0 0 1-8.025-2.756 6 6 0 0 1 2.756-8.025 20.375 20.375 0 0 1 23.376 3.919 5.999 5.999 0 0 1-4.25 10.237zm-56.614 24.792a6 6 0 0 1-6-6v-32.927c0-2.734-1.479-5.177-3.858-6.375-7.191-3.622-19.525-7.154-37.44-3.412a6 6 0 0 1-2.453-11.747c21.307-4.448 36.39-.04 45.289 4.441 6.453 3.249 10.461 9.799 10.461 17.093v32.927a5.998 5.998 0 0 1-5.999 6z" fill="#333"/><path d="M318.612 102.368v39.5c-28.01-18-39-66-39-66s-14 56-138 56h-.01v-29.5c0-48.88 39.63-88.5 88.5-88.5h.01c48.87 0 88.5 39.62 88.5 88.5z" fill="#d3923c"/><path d="M188.612 102.368c0-40.741 27.534-75.044 65-85.339a88.553 88.553 0 0 0-23.5-3.161h-.01c-48.87 0-88.5 39.62-88.5 88.5v41.5h.01c17.856 0 33.419-1.166 47-3.154v-38.346z" fill="#333" opacity=".44"/><path d="M230.102 270.868c-18.857 0-37.065-5.541-52.659-16.025a15.238 15.238 0 0 1-.773-.532c-25.717-17.663-41.067-46.79-41.067-77.943v-74c0-52.107 42.392-94.5 94.5-94.5 52.118 0 94.511 42.393 94.511 94.5v74c0 31.176-15.363 60.318-41.103 77.974-.144.103-.292.204-.438.302l-.102.068-.147.103c-15.604 10.502-33.834 16.053-52.722 16.053zm.011-251c-45.501 0-82.51 37.009-82.51 82.5v74c0 27.237 13.443 52.702 35.959 68.119.1.068.198.14.294.214l.162.103.084.056c13.616 9.164 29.522 14.008 46 14.008 16.467 0 32.357-4.83 45.958-13.966.108-.076.222-.153.337-.23l.111-.075c.059-.043.094-.068.154-.109 22.511-15.413 35.95-40.878 35.95-68.119v-74c.001-45.492-37.009-82.501-82.499-82.501z" fill="#333"/><path d="M315.368 146.916c-19.947-12.819-31.646-38.896-37.326-55.289-13.002 17.929-47.599 46.241-136.43 46.241v-12c117.952 0 132.051-50.94 132.179-51.455a6 6 0 0 1 5.82-4.545h.061a6 6 0 0 1 5.789 4.661c.104.453 10.804 45.846 36.396 62.291l-6.489 10.096zM199.473 311.868a6.001 6.001 0 0 1-3.971-1.501c-.817-.722-20.074-17.95-24.714-42.348a6.028 6.028 0 0 1-.105-1.121l6.026-.005 5.869-1.116c2.179 11.455 8.434 21.219 13.531 27.606a40.078 40.078 0 0 1 3.083-5.817c9.401-14.784 27.469-23.829 28.234-24.207a5.999 5.999 0 0 1 5.316 0c.765.378 18.832 9.423 28.234 24.209a39.984 39.984 0 0 1 3.073 5.795c5.134-6.442 11.443-16.292 13.574-27.762l11.799 2.192c-4.556 24.512-23.938 41.847-24.76 42.573a6 6 0 0 1-9.97-4.5c0-3.864-1.292-7.854-3.841-11.858-5.714-8.985-15.935-15.633-20.763-18.432-4.832 2.81-15.089 9.49-20.773 18.43-2.551 4.008-3.843 7.998-3.843 11.86a6 6 0 0 1-5.999 6.002z" fill="#333"/><path d="M230.082 328.868a6 6 0 0 1-6-6v-54.13a6 6 0 0 1 12 0v54.13a6 6 0 0 1-6 6z" fill="#333"/><path d="M299.397 98.869a6.002 6.002 0 0 1-5.891-4.894c-3.441-18.339-14.714-34.299-30.928-43.786a6 6 0 1 1 6.061-10.357c19.216 11.244 32.578 30.171 36.662 51.929a6.001 6.001 0 0 1-5.904 7.108zm-50.78-54.996c-.399 0-.79-.04-1.18-.12-.38-.08-.76-.19-1.12-.34s-.71-.34-1.04-.56c-.33-.21-.63-.46-.91-.74a6.03 6.03 0 0 1-1.76-4.24c0-.4.04-.79.12-1.18.08-.38.189-.76.34-1.12.15-.36.34-.71.56-1.04.21-.32.46-.63.74-.91.28-.27.58-.52.91-.74s.68-.41 1.04-.56c.36-.14.74-.26 1.12-.34.77-.15 1.569-.15 2.35 0 .38.08.76.2 1.12.34.36.15.71.34 1.04.56.32.22.63.47.91.74.27.28.52.59.74.91.22.33.399.68.56 1.04.14.36.26.74.34 1.12.08.39.12.78.12 1.18 0 1.58-.649 3.12-1.76 4.24-.28.28-.59.53-.91.74-.33.22-.68.41-1.04.56s-.74.26-1.12.34c-.389.08-.78.12-1.17.12z" fill="#fff"/><path d="M183.186 196.041c-17.006 0-30.792-13.786-30.792-30.792v-30.792h30.792c17.006 0 30.792 13.786 30.792 30.792s-13.786 30.792-30.792 30.792z" opacity=".44" fill="#f2f2f2"/><path d="M183.186 202.041c-20.288 0-36.792-16.505-36.792-36.792v-30.792a6 6 0 0 1 6-6h30.792c20.288 0 36.792 16.505 36.792 36.792s-16.505 36.792-36.792 36.792zm-24.793-61.585v24.792c0 13.67 11.122 24.792 24.792 24.792s24.792-11.122 24.792-24.792-11.122-24.792-24.792-24.792h-24.792z" fill="#6082b2"/><path d="M277.028 196.041c17.006 0 30.793-13.786 30.793-30.792v-30.792h-30.793c-17.006 0-30.792 13.786-30.792 30.792s13.786 30.792 30.792 30.792z" opacity=".44" fill="#f2f2f2"/><path d="M277.029 202.041c-20.288 0-36.793-16.505-36.793-36.792 0-20.288 16.505-36.792 36.793-36.792h30.792a6 6 0 0 1 6 6v30.792c0 20.287-16.505 36.792-36.792 36.792zm0-61.585c-13.671 0-24.793 11.122-24.793 24.792s11.122 24.792 24.793 24.792c13.67 0 24.792-11.122 24.792-24.792v-24.792h-24.792z" fill="#6082b2"/><path fill="#6082b2" d="M213.978 159.248h32.371v12h-32.371z"/><path d="M293.613 171.868a6 6 0 0 1-6-6v-16a6 6 0 0 1 12 0v16a6 6 0 0 1-6 6zm-98.005-11.995a6.03 6.03 0 0 1-4.24-1.76c-.27-.28-.53-.59-.74-.91-.22-.33-.41-.68-.56-1.04s-.26-.74-.34-1.12a5.809 5.809 0 0 1 0-2.35c.08-.38.19-.76.34-1.12s.34-.71.56-1.04c.21-.32.47-.63.74-.91a6.062 6.062 0 0 1 4.24-1.75c1.59 0 3.13.64 4.25 1.75.27.28.52.59.74.91.22.33.4.68.55 1.04.15.36.27.74.35 1.12.07.39.11.78.11 1.18 0 .39-.04.78-.11 1.17-.08.38-.2.76-.35 1.12-.15.36-.33.71-.55 1.04-.22.32-.47.63-.74.91a6.052 6.052 0 0 1-4.25 1.76z" fill="#fff"/><g fill="#333"><path d="M190.612 361.868a6 6 0 0 1-6-6v-26a6 6 0 0 1 12 0v26a6 6 0 0 1-6 6z"/><path d="M203.612 348.868h-26a6 6 0 0 1 0-12h26a6 6 0 0 1 0 12z"/></g></svg>