<?xml version="1.0" encoding="iso-8859-1"?>
<!-- Generator: Adobe Illustrator 16.0.0, SVG Export Plug-In . SVG Version: 6.00 Build 0)  -->
<!DOCTYPE svg PUBLIC "-//W3C//DTD SVG 1.1//EN" "http://www.w3.org/Graphics/SVG/1.1/DTD/svg11.dtd">
<svg version="1.1" id="Capa_1" xmlns="http://www.w3.org/2000/svg" xmlns:xlink="http://www.w3.org/1999/xlink" x="0px" y="0px"
	 width="485.213px" height="485.212px" viewBox="0 0 485.213 485.212" style="enable-background:new 0 0 485.213 485.212;"
	 xml:space="preserve">
<g>
	<g>
		<path d="M151.628,242.606h181.958c16.76,0,30.322-13.579,30.322-30.324v-90.978C363.908,54.315,309.598,0,242.606,0
			c-66.989,0-121.302,54.315-121.302,121.304v90.978C121.304,229.027,134.867,242.606,151.628,242.606z M242.606,30.327
			c0,0,0,91.925,90.979,90.978c0,50.241-40.748,90.978-90.979,90.978c-50.228,0-90.978-40.736-90.978-90.978
			C151.628,121.304,242.606,122.251,242.606,30.327z"/>
		<path d="M363.908,272.93h-75.812l30.326,30.327l-75.816,90.979l-75.812-90.979l30.322-30.327h-75.812
			c-33.498,0-60.653,27.163-60.653,60.654v121.302c0,16.764,13.565,30.326,30.327,30.326h30.327h242.604h30.327
			c16.759,0,30.326-13.562,30.326-30.326V333.584C424.562,300.093,397.399,272.93,363.908,272.93z"/>
	</g>
</g>
<g>
</g>
<g>
</g>
<g>
</g>
<g>
</g>
<g>
</g>
<g>
</g>
<g>
</g>
<g>
</g>
<g>
</g>
<g>
</g>
<g>
</g>
<g>
</g>
<g>
</g>
<g>
</g>
<g>
</g>
</svg>
