<svg xmlns="http://www.w3.org/2000/svg" viewBox="0 0 318.965 318.965">
    <path d="M303.673 253.518c-11.151-37.754-67.121-33.566-91.279-44.408-24.157-10.842-20.386-47.219-23.449-53.548h-58.932c-3.058 6.329.714 42.711-23.449 53.548-24.157 10.842-80.133 6.655-91.279 44.408-6.149 20.824-5.857 27.193-7.554 50.26 0 0 76.8 15.187 150.014 15.187s153.488-15.187 153.488-15.187c-1.703-23.073-1.411-29.436-7.56-50.26z" fill="#5c9ea0"/>
    <path d="M303.673 253.518c-11.151-37.754-67.121-33.566-91.279-44.408-24.157-10.842-20.386-47.219-23.449-53.548H157.74s-.719 51.024 23.438 61.866 80.133 6.655 91.279 44.408c5.857 19.83 5.868 26.552 7.324 47.073 19.234-2.816 31.442-5.126 31.442-5.126-1.693-23.078-1.401-29.441-7.55-50.265z" fill="#44919b"/>
    <path d="M60.621 312.068c27.631 3.552 62.771 6.897 97.124 6.897 35.112 0 71.854-3.496 100.581-7.133v-22.853s-56.853 8.526-100.721 8.526-96.978-8.526-96.978-8.526v23.089h-.006z" fill="#44919b"/>
    <path d="M190.092 226.382c9.741-3.805 17.756-9.409 23.168-16.21l.416-.517c-.433-.18-.86-.36-1.276-.545-24.157-10.842-20.386-47.219-23.449-53.548h-58.938c-3.058 6.329.714 42.711-23.449 53.548-.416.185-.843.371-1.276.545l.416.517c5.413 6.795 13.428 12.399 23.168 16.21 9.229 3.603 19.813 5.508 30.61 5.508s21.381-1.906 30.61-5.508z" fill="#eae5dc"/>
    <path d="M212.395 209.109c-4.345-1.95-7.779-4.727-10.516-8.004-5.064 6.357-13.827 11.404-24.573 14.096a22.82 22.82 0 0 0 3.878 2.22c4.71 2.113 10.634 3.659 17.199 5.053 6.031-3.378 11.089-7.548 14.872-12.304l.416-.517c-.433-.173-.86-.358-1.276-.544z" fill="#e0dbd3"/>
    <path d="M201.878 201.106c-12.5-14.951-10.421-40.356-12.927-45.549h-58.938c-2.512 5.193-.427 30.599-12.927 45.549 7.655 9.611 23.764 16.232 42.396 16.232s34.741-6.621 42.396-16.232z" fill="#dbb491"/>
    <path d="M177.305 215.202c10.747-2.692 19.509-7.74 24.573-14.096-12.5-14.951-10.421-40.356-12.927-45.549h-31.206c0 .005-.64 45.391 19.56 59.645z" fill="#cca483"/>
    <path d="M122.083 193.158c9.78 7.959 21.24 15.85 37.338 18.132 16.137-2.288 27.569-10.342 37.36-18.334-8.144-14.973-5.626-32.83-7.83-37.4h-58.938c-2.214 4.575.253 22.623-7.93 37.602z" fill="#c69e7f"/>
    <ellipse transform="rotate(100.195 228.524 118.557)" cx="228.522" cy="118.558" rx="21.386" ry="11.629" fill="#cca483"/>
    <ellipse transform="rotate(169.801 90.265 118.565)" cx="90.265" cy="118.565" rx="11.629" ry="21.386" fill="#dbb491"/>
    <path d="M223.641 47.365H95.233S59.244 193.979 159.42 208.171c100.216-14.192 64.221-160.806 64.221-160.806z" fill="#dbb491"/>
    <path d="M159.42 208.171c100.216-14.192 64.221-160.806 64.221-160.806h-15.024c4.114 61.242 9.808 93.774-13.815 129.24-18.717 28.103-35.382 31.566-35.382 31.566z" fill="#cca483"/>
    <path d="M192.666 55.234L90.309 83.365c8.661 3.468 25.574 9.864 61.748 9.707 20.133-.09 64.412-6.239 74.203-29.795l-33.594-8.043z" fill="#cca483"/>
    <path d="M187.838 5.48s-19.824-9.33-46.477-3.642c-19.953 4.26-52.423 17.829-59.73 46.893 0 0-10.932 47.483 7.683 67.931 0 0-.916-18.548.956-33.313 0 0 22.837 5.593 49.04 5.649 27.856.056 64.997-4.519 86.951-25.72 0 0 3.294 20.167 3.294 53.385 0 0 5.93-9.111 7.189-21.207 2.855-27.44-2.748-65.958-23.292-64.693-.006-.007-8.707-17.273-25.614-25.283z" fill="#393c3d"/>
    <path d="M232.826 100.879c-27.496-9.634-65.115.742-65.115.742-3.586.882-5.986 1.051-7.228 1.062h-2c-1.242-.011-3.642-.18-7.234-1.062 0 0-37.619-10.37-65.115-.742 0 0-.821 3.867 0 9.139 0 0 .067.798.956 1.135 0 0 3.001.944 3.777 4.002 0 0 1.72 6.891 2.276 10.055 0 0 .933 6.098 4.277 9.504 0 0 2.917 3.732 10.393 5.39 0 0 9.724 2.501 21.836 1.057 0 0 8.65-1.062 13.096-5.238 0 0 4.907-4.204 7.627-12.337 0 0 .849-2.501 2.67-7.931 0 0 .877-3.704 6.43-3.946 5.559.242 6.43 3.946 6.43 3.946 1.821 5.43 2.67 7.931 2.67 7.931 2.72 8.139 7.627 12.337 7.627 12.337 4.446 4.176 13.096 5.238 13.096 5.238 12.112 1.444 21.836-1.057 21.836-1.057 7.47-1.658 10.393-5.39 10.393-5.39 3.35-3.406 4.277-9.504 4.277-9.504.556-3.17 2.276-10.055 2.276-10.055.776-3.058 3.777-4.002 3.777-4.002.888-.332.955-1.135.955-1.135.837-5.272.017-9.139.017-9.139zm-84.45 14.939s-3.209 14.507-8.6 18.458c0 0-5.216 4.3-15.423 4.474 0 0-15.204.663-22.016-4.412 0 0-4.485-3.181-5.93-13.293 0 0-1.928-11.815.556-15.187 0 0 3.372-5.626 13.574-5.452 0 0 8.689-.174 15.766.528 0 0 8.774.674 16.57 3.198-.005-.01 8.482 2.339 5.503 11.686zm74.175 5.222c-1.445 10.111-5.93 13.293-5.93 13.293-6.812 5.081-22.016 4.412-22.016 4.412-10.207-.174-15.423-4.474-15.423-4.474-5.39-3.957-8.6-18.458-8.6-18.458-2.979-9.347 5.503-11.696 5.503-11.696 7.796-2.524 16.57-3.198 16.57-3.198 7.076-.703 15.766-.528 15.766-.528 10.207-.174 13.574 5.452 13.574 5.452 2.484 3.377.556 15.197.556 15.197z" fill="#3b3b3b"/>
</svg>
