<svg xmlns="http://www.w3.org/2000/svg" viewBox="0 0 418.996 418.996"><path d="M258.853 241.966c.19.05.39.09.58.14a88.003 88.003 0 0 1 28.83 12.81c23.39 15.92 38.75 42.77 38.75 73.19v84.89H91.983v-84.89c0-30.42 15.35-57.27 38.74-73.19a88.003 88.003 0 0 1 28.83-12.81c.19-.05.39-.09.58-.14" fill="#f7b239"/><path d="M327.013 418.996H91.983a6 6 0 0 1-6-6v-84.89a94.468 94.468 0 0 1 41.364-78.15c9.415-6.408 19.76-11.007 30.749-13.671.131-.033.264-.065.397-.096l.119-.028 3.05 11.606c-.154.041-.311.078-.469.114l-.119.028-.11.028c-9.597 2.321-18.636 6.338-26.865 11.938a82.48 82.48 0 0 0-36.116 68.23v78.89h223.03v-78.89c0-27.327-13.505-52.833-36.126-68.23-8.229-5.6-17.268-9.617-26.865-11.938l-.118-.03-.112-.026a13.268 13.268 0 0 1-.467-.114l3.05-11.606.12.028c.133.031.266.062.396.095 10.989 2.664 21.333 7.263 30.749 13.67 25.907 17.633 41.374 46.848 41.374 78.15v84.89a6.003 6.003 0 0 1-6.001 6.002z" fill="#333"/><path d="M139.013 288.996v124h-47.03v-84.89c0-30.42 15.35-57.27 38.74-73.19 5.3 10.2 8.29 21.79 8.29 34.08zm188 39.11v84.89h-47.04v-124c0-12.29 2.99-23.88 8.29-34.08 23.39 15.92 38.75 42.77 38.75 73.19z" fill="#ffd3ae"/><path d="M226.79 323.38c-.39 0-.79-.04-1.17-.11-.38-.08-.76-.2-1.12-.35a5.997 5.997 0 0 1-1.95-1.29c-.28-.28-.53-.59-.75-.92-.22-.32-.4-.67-.55-1.03a5.56 5.56 0 0 1-.34-1.12 5.809 5.809 0 0 1 0-2.35c.07-.38.19-.76.34-1.12s.33-.71.55-1.04c.22-.33.47-.63.75-.91.27-.28.58-.53.91-.75.33-.21.67-.4 1.04-.55.36-.15.74-.26 1.12-.34 1.95-.39 4.02.25 5.41 1.64.28.28.53.58.75.91.22.33.4.68.55 1.04.15.36.27.74.34 1.12a5.809 5.809 0 0 1 0 2.35c-.07.38-.19.76-.34 1.12s-.33.71-.55 1.03c-.22.33-.47.64-.75.92a6.044 6.044 0 0 1-4.24 1.75zm0 65.549c-.39 0-.79-.04-1.17-.11-.38-.08-.76-.2-1.12-.35a5.997 5.997 0 0 1-1.95-1.29c-.28-.28-.53-.59-.75-.92-.22-.32-.4-.67-.55-1.03a5.56 5.56 0 0 1-.34-1.12 5.809 5.809 0 0 1 0-2.35c.07-.38.19-.76.34-1.12s.33-.71.55-1.04c.22-.33.47-.63.75-.91.27-.28.58-.53.91-.75.33-.21.67-.4 1.04-.55.36-.15.74-.26 1.12-.34 1.95-.39 4.02.25 5.41 1.64.28.28.53.58.75.91.22.33.4.68.55 1.04.15.36.27.74.34 1.12a5.809 5.809 0 0 1 0 2.35c-.07.38-.19.76-.34 1.12s-.33.71-.55 1.03c-.22.33-.47.64-.75.92a6.044 6.044 0 0 1-4.24 1.75zm0-32.774c-.39 0-.79-.04-1.17-.11-.38-.08-.76-.2-1.12-.35a5.997 5.997 0 0 1-1.95-1.29c-.28-.28-.53-.59-.75-.92-.22-.32-.4-.67-.55-1.03a5.56 5.56 0 0 1-.34-1.12 5.809 5.809 0 0 1 0-2.35c.07-.38.19-.76.34-1.12s.33-.71.55-1.04c.22-.33.47-.63.75-.91.27-.28.58-.53.91-.75.33-.21.67-.4 1.04-.55.36-.15.74-.26 1.12-.34 1.95-.39 4.02.25 5.41 1.64.28.28.53.58.75.91.22.33.4.68.55 1.04.15.36.27.74.34 1.12a5.809 5.809 0 0 1 0 2.35c-.07.38-.19.76-.34 1.12s-.33.71-.55 1.03c-.22.33-.47.64-.75.92a6.044 6.044 0 0 1-4.24 1.75z" fill="#333"/><path d="M327.013 328.106v19.89h-47.04v-59c0-12.29 2.99-23.88 8.29-34.08 23.39 15.92 38.75 42.77 38.75 73.19z" fill="#f7b239"/><path d="M327.013 353.996h-47.04a6 6 0 0 1-6-6v-59c0-12.816 3.1-25.558 8.966-36.846a6.002 6.002 0 0 1 8.7-2.194c25.907 17.633 41.374 46.848 41.374 78.15v19.89a6 6 0 0 1-6 6zm-41.04-12h35.04v-13.89a82.465 82.465 0 0 0-30.377-63.943c-3.097 7.868-4.663 16.191-4.663 24.833v53z" fill="#333"/><path d="M139.013 288.996v59h-47.03v-19.89c0-30.42 15.35-57.27 38.74-73.19 5.3 10.2 8.29 21.79 8.29 34.08z" fill="#f7b239"/><path d="M139.013 353.996h-47.03a6 6 0 0 1-6-6v-19.89a94.468 94.468 0 0 1 41.364-78.15 6.002 6.002 0 0 1 8.7 2.193c5.865 11.288 8.966 24.029 8.966 36.846v59a6.001 6.001 0 0 1-6 6.001zm-41.03-12h35.03v-53c0-8.642-1.565-16.966-4.662-24.833a82.462 82.462 0 0 0-30.368 63.943v13.89zm187.99 71h-12v-124c0-12.816 3.1-25.558 8.966-36.846l10.648 5.533c-5.052 9.724-7.614 20.259-7.614 31.313v124z" fill="#333"/><path fill="#333" d="M281.313 341.996h47.03v12h-47.03z"/><path d="M307.013 398.996a6 6 0 0 1-6-6v-27a6 6 0 0 1 12 0v27a6 6 0 0 1-6 6z" fill="#fff"/><path d="M135.663 266.916c-15.21 15.89-24.56 37.45-24.56 61.19v19.89h-19.12v-19.89c0-30.42 15.35-57.27 38.74-73.19 1.98 3.82 3.64 7.83 4.94 12zm-42.613 81.08h16.63v65H93.05z" opacity=".44" fill="#333"/><path fill="#333" d="M91.983 341.996h47.03v12h-47.03zm249.015 77H78.228a6 6 0 0 1 0-12h262.77a6 6 0 0 1 0 12zm32 0h-11a6 6 0 0 1 0-12h11a6 6 0 0 1 0 12zm-316 0h-11a6 6 0 0 1 0-12h11a6 6 0 0 1 0 12z"/><path d="M209.498 418.996a6 6 0 0 1-6-6V257a6 6 0 0 1 12 0v155.995a6.001 6.001 0 0 1-6 6.001z" fill="#333"/><path d="M142.707 248.061l17.626-6.321c.19-.05.39-.09.58-.14 14.1 9.49 31.08 15.03 49.36 15.03 17.86 0-2.647 12.963-2.647 12.963s-7.792 6.843-16.236 17.649c-3.933 5.033-29.019-9.262-29.019-9.262l-19.664-29.919z" opacity=".44" fill="#333"/><path d="M174.199 295.975s-27.056-18.345-35.186-.345l-4.797-45 8.49-2.569 31.493 47.914z" opacity=".44" fill="#333"/><path d="M327.013 418.996H91.983a6 6 0 0 1-6-6v-84.89a94.468 94.468 0 0 1 41.364-78.15c9.415-6.408 19.76-11.007 30.749-13.671.131-.033.264-.065.397-.096l.119-.028 3.05 11.606c-.154.041-.311.078-.469.114l-.119.028-.11.028c-9.597 2.321-18.636 6.338-26.865 11.938a82.48 82.48 0 0 0-36.116 68.23v78.89h223.03v-78.89c0-27.327-13.505-52.833-36.126-68.23-8.229-5.6-17.268-9.617-26.865-11.938l-.118-.03-.112-.026a13.268 13.268 0 0 1-.467-.114l3.05-11.606.12.028c.133.031.266.062.396.095 10.989 2.664 21.333 7.263 30.749 13.67 25.907 17.633 41.374 46.848 41.374 78.15v84.89a6.003 6.003 0 0 1-6.001 6.002z" fill="#333"/><path d="M145.013 412.996h-12v-124c0-11.055-2.562-21.59-7.614-31.313l10.648-5.533c5.865 11.288 8.966 24.029 8.966 36.846v124zm34.874-102.366a6 6 0 0 1-5.014-2.705l-37.181-56.569 10.028-6.591 32.026 48.726 24.655-39.659a6.001 6.001 0 0 1 10.192 0l24.655 39.66 32.026-48.727 10.028 6.591-37.181 56.569a5.952 5.952 0 0 1-5.09 2.704 6 6 0 0 1-5.02-2.832l-24.515-39.433-24.514 39.433a6 6 0 0 1-5.02 2.832l-.075.001z" fill="#333"/><g fill="#ffd3ae"><circle cx="128.931" cy="145.996" r="27.89"/><circle cx="290.066" cy="145.996" r="27.89"/></g><path d="M128.93 179.886c-18.687 0-33.89-15.203-33.89-33.89s15.203-33.89 33.89-33.89 33.89 15.203 33.89 33.89-15.203 33.89-33.89 33.89zm0-55.78c-12.07 0-21.89 9.82-21.89 21.89s9.82 21.89 21.89 21.89 21.89-9.82 21.89-21.89c.001-12.07-9.819-21.89-21.89-21.89zm161.136 55.78c-18.687 0-33.89-15.203-33.89-33.89s15.203-33.89 33.89-33.89 33.89 15.203 33.89 33.89-15.203 33.89-33.89 33.89zm0-55.78c-12.07 0-21.89 9.82-21.89 21.89s9.82 21.89 21.89 21.89 21.89-9.82 21.89-21.89-9.82-21.89-21.89-21.89z" fill="#333"/><path d="M258.858 241.966c-14.1 9.49-31.08 15.03-49.36 15.03s-35.26-5.54-49.36-15.03c-.19-.13-.39-.26-.58-.4-23.28-15.94-38.56-42.72-38.56-73.07v-74c0-48.877 39.623-88.5 88.5-88.5s88.5 39.623 88.5 88.5v74c0 30.35-15.28 57.13-38.56 73.07-.19.14-.39.27-.58.4z" fill="#ffd3ae"/><path d="M209.498 25.996c4.631 0 9.156.462 13.531 1.342" fill="#333"/><path d="M223.035 33.339c-.392 0-.79-.039-1.189-.119a62.783 62.783 0 0 0-12.348-1.224 6 6 0 0 1 0-12c4.948 0 9.898.491 14.714 1.46a5.999 5.999 0 0 1 4.699 7.065 6.002 6.002 0 0 1-5.876 4.818zm28.489 13.15a5.975 5.975 0 0 1-3.731-1.304 57.786 57.786 0 0 0-7.625-5.132 6 6 0 1 1 5.911-10.443 69.849 69.849 0 0 1 9.183 6.183 6 6 0 0 1-3.738 10.696z" fill="#fff"/><path d="M191.138 241.966a88.195 88.195 0 0 0 33.86 13.68c-5.03.89-10.21 1.35-15.5 1.35-18.28 0-35.26-5.54-49.36-15.03-.19-.13-.39-.26-.58-.4-23.28-15.94-38.56-42.72-38.56-73.07v-22.5c0-139 54.89-137.301 54.89-134.411l-10.384 15.807c-15.364 23.387-15.305 53.174-.958 76.231 2.423 3.895 10.151 17.294 10.019 20.366-.483 11.29-9.201 21.36-21.338 21.975-.407.021-.817.031-1.229.031v22.5c0 30.35 15.28 57.13 38.56 73.07.19.141.39.271.58.401z" opacity=".44" fill="#333"/><path d="M298.002 94.5v9.61c-19.9-5.86-34.42-24.26-34.42-46.05 0-9.84 2.96-18.98 8.04-26.59.16.15.31.3.46.45 16.01 16.02 25.92 38.14 25.92 62.58z" fill="#a67c52"/><path d="M147.382 31.47a47.79 47.79 0 0 1 8.03 26.59c0 21.79-14.52 40.19-34.41 46.04v-9.6c0-24.67 10.09-46.98 26.38-63.03z" fill="#936841"/><g fill="#333"><path d="M209.502 263c-18.88 0-37.107-5.551-52.71-16.052l-.173-.118a21.614 21.614 0 0 1-.516-.357c-25.737-17.656-41.1-46.799-41.1-77.973v-74c0-25.504 10.004-49.407 28.169-67.304C160.953 9.659 184.51 0 209.502 0c24.97 0 48.508 9.642 66.287 27.152.172.163.336.325.499.488 17.886 17.897 27.714 41.628 27.714 66.86v74c0 31.174-15.363 60.316-41.1 77.973-.17.122-.343.241-.516.357l-.133.09C246.609 257.449 228.382 263 209.502 263zm0-251c-21.818 0-42.383 8.432-57.907 23.742-15.859 15.626-24.593 36.493-24.593 58.758v74c0 27.241 13.439 52.706 35.95 68.119.057.039.113.079.168.12.068.05.139.096.209.143l.204.138c13.575 9.136 29.485 13.98 45.969 13.98s32.394-4.844 46.01-14.008l.372-.253.168-.12c22.51-15.414 35.95-40.879 35.95-68.119v-74c0-22.028-8.582-42.746-24.164-58.339-.121-.121-.219-.219-.323-.317l-.106-.102C251.885 20.432 231.32 12 209.502 12z"/><path d="M122.695 109.856l-3.386-11.512c17.724-5.213 30.103-21.778 30.103-40.284 0-8.323-2.429-16.367-7.023-23.263l9.986-6.653c5.912 8.874 9.037 19.219 9.037 29.917 0 23.791-15.921 45.09-38.717 51.795zm173.612.009c-22.801-6.714-38.725-28.017-38.725-51.805 0-10.706 3.129-21.053 9.05-29.921l9.98 6.663c-4.599 6.89-7.03 14.932-7.03 23.259 0 18.503 12.384 35.073 30.115 40.294l-3.39 11.51z"/></g><path d="M215.029 228.297h-11.061a6 6 0 0 1 0-12h11.061a6 6 0 0 1 0 12zm75.087-81.858l-10.225-6.281L292.9 118.98l10.225 6.28zm-161.233.007l-13.009-21.179 10.225-6.28 13.009 21.178z" fill="#333"/><path d="M276.362 129.63a6 6 0 0 1-6-6v-10.57a6 6 0 0 1 12 0v10.571a6 6 0 0 1-6 5.999z" fill="#fff"/><path d="M217.656 149.307h-16.315a6 6 0 0 1 0-12h16.315a6 6 0 0 1 0 12z" fill="#333"/><path d="M195.498 143.307c0 18.594-27.876 44.156-46.469 44.156s-20.864-25.563-20.864-44.156 67.333-18.594 67.333 0zm28 0c0 18.594 27.876 44.156 46.469 44.156 18.594 0 20.864-25.563 20.864-44.156s-67.333-18.594-67.333 0z" fill="#f7b239"/><path d="M154.871 193.463c-26.864 0-26.864-37.751-26.864-50.156 0-14.722 21.368-19.945 39.667-19.945s39.667 5.224 39.667 19.945c0 21.563-29.913 50.156-52.47 50.156zm12.803-58.101c-17.901 0-27.667 5.249-27.667 7.945 0 38.156 11.188 38.156 14.864 38.156 15.885 0 40.469-23.179 40.469-38.156 0-1.195-2.039-3.151-6.594-4.829-5.379-1.98-13.06-3.116-21.072-3.116zm96.451 58.101c-22.557 0-52.469-28.594-52.469-50.156 0-14.722 21.368-19.945 39.667-19.945 18.299 0 39.667 5.224 39.667 19.945-.001 12.405-.001 50.156-26.865 50.156zm-12.803-58.101c-17.901 0-27.667 5.249-27.667 7.945 0 14.977 24.584 38.156 40.469 38.156 14.864 0 14.864-28.719 14.864-38.156 0-1.195-2.039-3.151-6.594-4.829-5.379-1.98-13.06-3.116-21.072-3.116z" fill="#333"/><path d="M177.888 156.932c-1.58 0-3.13-.64-4.24-1.75-1.12-1.12-1.76-2.67-1.76-4.25s.64-3.12 1.76-4.24a6.059 6.059 0 0 1 5.41-1.64c.39.08.76.19 1.13.34.36.15.71.34 1.03.55.33.22.64.47.91.75.28.28.53.58.75.91s.4.68.55 1.04.27.74.34 1.12a5.809 5.809 0 0 1 0 2.35c-.07.38-.19.76-.34 1.12s-.33.71-.55 1.03c-.22.33-.47.64-.75.92a6.044 6.044 0 0 1-4.24 1.75zm68 0c-.39 0-.79-.04-1.17-.11-.38-.08-.76-.2-1.12-.35a5.997 5.997 0 0 1-1.95-1.29c-.28-.28-.53-.59-.75-.92-.22-.32-.4-.67-.55-1.03s-.27-.74-.34-1.12a5.809 5.809 0 0 1 0-2.35c.07-.38.19-.76.34-1.12s.33-.71.55-1.04c.22-.33.47-.63.75-.91.27-.28.58-.53.91-.75.33-.21.67-.4 1.04-.55.36-.15.74-.26 1.12-.34 1.95-.39 4.02.25 5.41 1.64.28.28.53.58.75.91s.4.68.55 1.04.27.74.34 1.12a5.809 5.809 0 0 1 0 2.35c-.07.38-.19.76-.34 1.12s-.33.71-.55 1.03c-.22.33-.47.64-.75.92a6.044 6.044 0 0 1-4.24 1.75z" fill="#333"/><path d="M202.555 190.963a6 6 0 0 1-6-6v-27.824a5.816 5.816 0 0 0-5.81-5.81h-28.58a6 6 0 0 1 0-12h28.58c9.82 0 17.81 7.99 17.81 17.81v27.824a6 6 0 0 1-6 6zm54.276-39.634h-24a6 6 0 0 1 0-12h24a6 6 0 0 1 0 12z" fill="#333"/><path d="M185.691 150.225c-.39 0-.78-.04-1.17-.12a5.56 5.56 0 0 1-1.12-.34c-.36-.15-.71-.33-1.04-.55a6.012 6.012 0 0 1-2.67-4.99 6.03 6.03 0 0 1 2.67-4.99c.33-.21.68-.4 1.04-.55.36-.15.74-.26 1.12-.34.78-.16 1.57-.16 2.35 0 .38.08.76.19 1.12.34.36.15.71.34 1.04.55.32.22.63.47.91.75.27.28.52.58.74.91s.4.67.55 1.04c.15.36.27.74.35 1.12a6.044 6.044 0 0 1-1.64 5.41 6.057 6.057 0 0 1-4.25 1.76zm82.171 13.802a6 6 0 0 1-6-6v-10.571a6 6 0 0 1 12 0v10.571a6 6 0 0 1-6 6z" fill="#fff"/></svg>