<svg xmlns="http://www.w3.org/2000/svg" viewBox="0 0 419 419"><g fill="#ffd3ae"><circle cx="128.928" cy="146" r="27.89"/><circle cx="290.063" cy="146" r="27.89"/></g><path d="M128.928 179.89c-18.687 0-33.89-15.203-33.89-33.89s15.203-33.89 33.89-33.89 33.89 15.203 33.89 33.89-15.203 33.89-33.89 33.89zm0-55.78c-12.07 0-21.89 9.82-21.89 21.89s9.82 21.89 21.89 21.89 21.89-9.82 21.89-21.89-9.82-21.89-21.89-21.89zm161.135 55.78c-18.687 0-33.89-15.203-33.89-33.89s15.203-33.89 33.89-33.89 33.89 15.203 33.89 33.89-15.203 33.89-33.89 33.89zm0-55.78c-12.07 0-21.89 9.82-21.89 21.89s9.82 21.89 21.89 21.89 21.89-9.82 21.89-21.89-9.82-21.89-21.89-21.89z" fill="#333"/><path d="M258.855 241.97c.19.05.39.09.58.14a88.003 88.003 0 0 1 28.83 12.81c23.39 15.92 38.75 42.77 38.75 73.19V413H91.985v-84.89c0-30.42 15.35-57.27 38.74-73.19a88.003 88.003 0 0 1 28.83-12.81c.19-.05.39-.09.58-.14" fill="#3a88d6"/><path d="M297.995 94.5V146c-13.19 0-23.89-10.69-23.89-23.89V99.04c0-9.94-10.18-16.63-19.3-12.67a113.996 113.996 0 0 1-90.61 0c-1.82-.79-3.69-1.16-5.5-1.16-7.28 0-13.81 5.88-13.81 13.83v23.07c0 13.2-10.7 23.89-23.89 23.89V94.5c0-48.877 39.623-88.5 88.5-88.5s88.5 39.623 88.5 88.5z" fill="#333"/><path d="M139.015 289v124h-47.03v-84.89c0-30.42 15.35-57.27 38.74-73.19 5.3 10.2 8.29 21.79 8.29 34.08zm188 39.11V413h-47.04V289c0-12.29 2.99-23.88 8.29-34.08 23.39 15.92 38.75 42.77 38.75 73.19zm-67.58-86V260c0 27.58-22.36 49.94-49.94 49.94s-49.94-22.36-49.94-49.94v-17.89c.19-.05.39-.09.58-.14 14.1 9.49 31.08 15.03 49.36 15.03s35.26-5.54 49.36-15.03c.19.05.39.09.58.14z" fill="#ffd3ae"/><path d="M297.995 146v22.5c0 30.35-15.28 57.13-38.56 73.07-.19.14-.39.27-.58.4-14.1 9.49-31.08 15.03-49.36 15.03s-35.26-5.54-49.36-15.03c-.19-.13-.39-.26-.58-.4-23.28-15.94-38.56-42.72-38.56-73.07V146c13.19 0 23.89-10.69 23.89-23.89V99.04c0-7.95 6.53-13.83 13.81-13.83 1.81 0 3.68.37 5.5 1.16a113.996 113.996 0 0 0 90.61 0c9.12-3.96 19.3 2.73 19.3 12.67v23.07c0 13.2 10.7 23.89 23.89 23.89z" fill="#ffd3ae"/><path d="M257.875 242.62a88.868 88.868 0 0 1-28.44 31.95c-.19.14-.39.27-.58.4-14.1 9.49-31.08 15.03-49.36 15.03-6.5 0-12.84-.7-18.94-2.04-.66-3.23-1-6.57-1-9.99v-35.86c.19-.05.39-.09.58-.14 14.1 9.49 31.08 15.03 49.36 15.03 17.86 0 34.48-5.29 48.38-14.38z" opacity=".44" fill="#333"/><path d="M191.135 241.97a88.195 88.195 0 0 0 33.86 13.68c-5.03.89-10.21 1.35-15.5 1.35-18.28 0-35.26-5.54-49.36-15.03-.19-.13-.39-.26-.58-.4-23.28-15.94-38.56-42.72-38.56-73.07V146c13.19 0 23.89-10.69 23.89-23.89V99.04c0-7.95 6.53-13.83 13.81-13.83 1.81 0 3.68.37 5.5 1.16 4.58 1.98 9.26 3.65 14 5.01-1.45 2.16-2.31 4.77-2.31 7.66v23.07c0 13.2-10.7 23.89-23.89 23.89v22.5c0 30.35 15.28 57.13 38.56 73.07.19.14.39.27.58.4z" opacity=".44" fill="#333"/><path d="M209.495 263c-18.88 0-37.107-5.551-52.71-16.052l-.167-.113c-.174-.117-.35-.238-.522-.362-25.737-17.656-41.1-46.799-41.1-77.973v-74c0-52.107 42.393-94.5 94.5-94.5s94.5 42.393 94.5 94.5v74c0 31.174-15.362 60.316-41.099 77.972-.173.125-.35.245-.524.363l-.129.088-.037.025C246.603 257.449 228.375 263 209.495 263zm0-251c-45.491 0-82.5 37.009-82.5 82.5v74c0 27.241 13.439 52.706 35.95 68.119.057.039.113.079.168.12.068.05.14.096.21.144l.199.135C177.101 246.156 193.011 251 209.495 251s32.395-4.844 46.01-14.008l.156-.106c.071-.048.145-.096.215-.147.055-.041.111-.081.168-.12 22.511-15.413 35.95-40.878 35.95-68.119v-74c.001-45.491-37.008-82.5-82.499-82.5zm33.627 22.836c14.321 8.103 25.451 21.212 30.997 36.933" fill="#333"/><path d="M274.119 77.771a6.002 6.002 0 0 1-5.658-4.006c-5.03-14.259-15.078-26.23-28.293-33.708a6 6 0 0 1 5.909-10.444c15.738 8.905 27.707 23.167 33.701 40.159a5.999 5.999 0 0 1-3.662 7.654 5.975 5.975 0 0 1-1.997.345z" fill="#fff"/><path d="M209.495 26c4.631 0 9.156.462 13.531 1.342" fill="#333"/><path d="M223.033 33.343c-.392 0-.79-.039-1.189-.119A62.793 62.793 0 0 0 209.495 32a6 6 0 0 1 0-12c4.948 0 9.898.491 14.714 1.46a6 6 0 1 1-1.176 11.883z" fill="#fff"/><path d="M209.495 315.94c-30.845 0-55.94-25.095-55.94-55.94v-18.43h12V260c0 24.229 19.711 43.94 43.94 43.94s43.94-19.711 43.94-43.94v-18.43h12V260c0 30.845-25.095 55.94-55.94 55.94zm88.5-163.94c-16.481 0-29.89-13.408-29.89-29.89V99.04c0-2.682-1.286-5.064-3.527-6.534-2.237-1.468-4.929-1.698-7.384-.632-15.155 6.561-31.202 9.886-47.7 9.886-16.502 0-32.545-3.326-47.685-9.884a7.79 7.79 0 0 0-3.115-.666c-3.756 0-7.81 2.994-7.81 7.83v23.07c0 16.481-13.409 29.89-29.89 29.89v-12c9.865 0 17.89-8.025 17.89-17.89V99.04c0-10.934 8.887-19.83 19.81-19.83 2.703 0 5.356.557 7.889 1.656 13.621 5.901 28.06 8.894 42.911 8.894 14.849 0 29.291-2.993 42.926-8.896a19.738 19.738 0 0 1 18.739 1.608 19.756 19.756 0 0 1 8.945 16.568v23.07c0 9.865 8.025 17.89 17.89 17.89v12h.001zm-120.11 14.437c-1.58 0-3.13-.64-4.24-1.75-1.12-1.12-1.76-2.67-1.76-4.25s.64-3.12 1.76-4.24a6.059 6.059 0 0 1 5.41-1.64c.39.08.76.19 1.13.34.36.15.71.34 1.03.55.33.22.64.47.91.75.28.28.53.58.75.91s.4.68.55 1.04c.15.36.27.74.34 1.12a5.809 5.809 0 0 1 0 2.35c-.07.38-.19.76-.34 1.12s-.33.71-.55 1.03c-.22.33-.47.64-.75.92a6.044 6.044 0 0 1-4.24 1.75zm68 0c-.39 0-.79-.04-1.17-.11-.38-.08-.76-.2-1.12-.35a5.997 5.997 0 0 1-1.95-1.29c-.28-.28-.53-.59-.75-.92-.22-.32-.4-.67-.55-1.03a5.56 5.56 0 0 1-.34-1.12 5.809 5.809 0 0 1 0-2.35c.07-.38.19-.76.34-1.12s.33-.71.55-1.04c.22-.33.47-.63.75-.91.27-.28.58-.53.91-.75.33-.21.67-.4 1.04-.55.36-.15.74-.26 1.12-.34 1.95-.39 4.02.25 5.41 1.64.28.28.53.58.75.91s.4.68.55 1.04c.15.36.27.74.34 1.12a5.809 5.809 0 0 1 0 2.35c-.07.38-.19.76-.34 1.12s-.33.71-.55 1.03c-.22.33-.47.64-.75.92a6.044 6.044 0 0 1-4.24 1.75z" fill="#333"/><path d="M202.552 180a6 6 0 0 1-6-6v-16.857a5.816 5.816 0 0 0-5.81-5.81h-28.58a6 6 0 0 1 0-12h28.58c9.82 0 17.81 7.99 17.81 17.81V174a6 6 0 0 1-6 6zm54.277-28.667h-24a6 6 0 0 1 0-12h24a6 6 0 0 1 0 12zm-35.334 64h-24a6 6 0 0 1 0-12h24a6 6 0 0 1 0 12z" fill="#333"/><path d="M327.015 328.11V348h-47.04v-59c0-12.29 2.99-23.88 8.29-34.08 23.39 15.92 38.75 42.77 38.75 73.19zm-188-39.11v59h-47.03v-19.89c0-30.42 15.35-57.27 38.74-73.19 5.3 10.2 8.29 21.79 8.29 34.08z" fill="#3a88d6"/><path d="M285.975 413h-12V289c0-12.816 3.1-25.558 8.966-36.846l10.648 5.533c-5.052 9.724-7.614 20.259-7.614 31.313v124z" fill="#333"/><path fill="#333" d="M281.315 342h47.03v12h-47.03z"/><path d="M307.015 399a6 6 0 0 1-6-6v-27a6 6 0 0 1 12 0v27a6 6 0 0 1-6 6z" fill="#fff"/><path d="M135.665 266.92c-15.21 15.89-24.56 37.45-24.56 61.19V348h-19.12v-19.89c0-30.42 15.35-57.27 38.74-73.19 1.98 3.82 3.64 7.83 4.94 12zM93.052 348h16.63v65h-16.63z" opacity=".44" fill="#333"/><path d="M327.015 419H91.985a6 6 0 0 1-6-6v-84.89a94.468 94.468 0 0 1 41.364-78.15c9.415-6.408 19.76-11.007 30.749-13.671.131-.033.264-.065.397-.096l.119-.028 3.05 11.606c-.154.041-.311.078-.469.114l-.119.028-.11.028c-9.597 2.321-18.636 6.338-26.865 11.938a82.48 82.48 0 0 0-36.116 68.23V407h223.03v-78.89c0-27.327-13.505-52.833-36.126-68.23-8.229-5.6-17.268-9.617-26.865-11.938l-.118-.03-.112-.026a13.268 13.268 0 0 1-.467-.114l3.05-11.606.12.028c.133.031.266.062.396.095 10.989 2.664 21.333 7.263 30.749 13.67 25.907 17.633 41.374 46.848 41.374 78.15V413a6.001 6.001 0 0 1-6.001 6z" fill="#333"/><path d="M145.015 413h-12V289c0-11.055-2.562-21.59-7.614-31.313l10.648-5.533c5.865 11.288 8.966 24.029 8.966 36.846v124z" fill="#333"/><path fill="#333" d="M91.985 342h47.03v12h-47.03z"/><path d="M257.885 123a6 6 0 0 1-6-6v-12.231a6 6 0 0 1 12 0V117a6 6 0 0 1-6 6z" fill="#fff"/><path d="M341 419H78.23a6 6 0 0 1 0-12H341a6 6 0 0 1 0 12zm32 0h-11a6 6 0 0 1 0-12h11a6 6 0 0 1 0 12zm-316 0H46a6 6 0 0 1 0-12h11a6 6 0 0 1 0 12z" fill="#333"/></svg>